# 3ds Max Wavefront OBJ Exporter v0.97b - (c)2007 guruware
# File Created: 15.04.2015 23:22:09

#
# object Sphere01
#

v  -0.0254 -0.4611 0.9279
v  0.1746 -0.8489 0.1002
v  1.0693 -0.6049 -0.2267
v  0.8806 -0.2100 0.7192
v  -1.3162 -0.4476 0.2302
v  -1.3938 -0.4834 0.1543
v  1.1095 -0.5556 -0.4270
v  1.3786 -0.3777 -0.0595
v  -0.9394 -0.1013 0.8526
v  -1.5262 -0.2761 0.3765
v  1.4179 -0.4160 0.0386
v  1.4387 -0.3704 0.0880
v  1.4812 -0.3145 -0.4790
v  1.5280 -0.2846 -0.0948
v  1.4000 -0.2819 0.0553
v  1.3357 -0.2784 0.2845
v  -0.9098 -0.3237 -0.5928
v  0.2090 0.1952 -1.1786
v  1.6497 -0.0453 -0.5691
v  -1.3300 -0.3962 0.2029
v  -1.3642 -0.3839 0.0465
v  1.5283 -0.1321 -0.2045
v  1.6078 -0.0313 -0.3905
v  1.6367 -0.0668 0.0147
v  1.5447 -0.0159 0.0707
v  -0.3604 -0.0506 0.9923
v  -1.6610 -0.2051 0.0906
v  1.5755 0.0407 0.1986
v  1.6913 0.0261 -0.4377
v  1.4392 0.0290 -0.3607
v  1.4494 0.1491 0.3028
v  -1.7187 -0.1491 0.1637
v  -1.8402 0.0400 -0.0688
v  -1.8078 -0.0770 -0.0154
v  -1.8549 -0.0113 -0.1354
v  -2.1156 0.2801 -0.1176
v  1.5326 0.1483 -0.3865
v  -1.2341 0.2799 0.6076
v  -1.6422 -0.0388 0.3243
v  -1.7388 0.0259 0.1785
v  1.4522 0.5113 -0.6527
v  1.7748 0.3918 -0.1262
v  1.1941 0.0259 0.8178
v  1.5545 0.2717 0.4512
v  1.5096 0.3858 0.2203
v  0.5164 0.2139 1.0296
v  -1.7746 0.0876 0.1897
v  -1.9434 0.2114 0.1852
v  -1.7364 0.0877 0.1079
v  -1.9862 0.1606 -0.0341
v  0.3212 0.8163 -0.9909
v  -1.8033 0.3886 0.1002
v  -1.8546 0.2114 0.1240
v  1.3583 0.5111 0.4665
v  0.6262 0.5942 0.8358
v  -1.1898 0.5933 0.5929
v  -1.3393 0.4054 0.5506
v  -1.7395 0.3904 0.0313
v  -1.3006 0.4057 0.5152
v  -1.9467 0.5571 -0.0421
v  -1.7062 0.4495 0.1017
v  -1.6823 0.4502 0.0784
v  -1.6815 0.5091 0.0836
v  1.3027 0.9369 0.2942
v  1.3435 0.7566 0.3645
v  1.3180 0.6967 0.4692
v  1.2226 0.9453 0.7665
v  -1.5664 0.5724 0.1139
v  -1.3429 0.6547 -0.2943
v  1.3454 0.8892 0.6391
v  -1.5650 0.7987 0.1268
v  0.4362 1.5928 -0.1517
v  -0.8456 1.0409 -0.5154
v  1.2379 1.0089 0.7089
v  -0.2990 1.5070 -0.1494
v  -0.4609 1.2347 -0.4370
# 76 vertices

vn 0.3576 -0.8229 0.4415
vn -0.2071 -0.8963 0.3921
vn 0.3414 -0.9263 -0.1594
vn -0.3110 -0.7380 0.5989
vn 0.7240 -0.4928 -0.4826
vn 0.5406 -0.8413 0.0054
vn 0.5437 -0.6913 0.4759
vn 0.9166 0.3999 -0.0010
vn 0.1051 -0.8525 0.5120
vn -0.0763 -0.8485 -0.5237
vn 0.2547 -0.5002 -0.8276
vn -0.9104 -0.3568 -0.2096
vn -0.8417 0.4917 0.2231
vn 0.9601 -0.2788 0.0203
vn 0.6945 0.4191 0.5848
vn 0.3912 -0.2641 0.8816
vn 0.2667 -0.8693 0.4162
vn 0.2179 0.0248 0.9757
vn -0.5080 -0.8608 0.0320
vn -0.1144 -0.7680 -0.6301
vn 0.6590 -0.7449 -0.1041
vn 0.8331 -0.5273 0.1670
vn -0.7339 -0.3871 -0.5582
vn 0.8500 -0.5264 0.0173
vn 0.6577 -0.4765 0.5834
vn 0.3651 0.7442 0.5594
vn 0.6327 -0.2003 0.7480
vn -0.7025 -0.7116 -0.0097
vn -0.5286 -0.8132 -0.2435
vn -0.4560 -0.7954 -0.3991
vn -0.4318 -0.1644 -0.8869
vn 0.2918 0.1010 0.9511
vn 0.9689 0.2020 -0.1430
vn -0.6016 -0.0158 0.7986
vn -0.8136 -0.2197 0.5383
vn 0.8269 -0.3988 -0.3964
vn 0.8722 -0.4891 0.0067
vn -0.3745 0.2976 0.8782
vn -0.7154 -0.4681 0.5187
vn 0.4260 -0.4972 -0.7558
vn 0.6070 -0.7867 0.1127
vn -0.1976 -0.3072 0.9309
vn 0.7627 0.1053 0.6381
vn 0.1206 -0.5171 0.8474
vn -0.6365 0.1413 0.7582
vn -0.8005 -0.5190 0.2998
vn -0.6456 -0.7011 -0.3028
vn -0.9869 -0.1027 -0.1240
vn -0.6521 -0.7321 -0.1969
vn -0.4001 -0.5181 0.7559
vn 0.3639 0.1081 -0.9251
vn 0.8819 0.4661 0.0710
vn -0.5615 -0.1456 -0.8145
vn -0.5134 -0.0997 0.8523
vn 0.8766 -0.3414 -0.3391
vn 0.5819 0.4327 0.6886
vn 0.4284 0.4023 0.8091
vn -0.1350 0.4239 0.8956
vn -0.2775 0.3207 0.9056
vn -0.6843 0.6301 0.3670
vn -0.5002 -0.6685 -0.5503
vn -0.4797 0.1086 0.8707
vn -0.7302 0.1212 -0.6724
vn -0.3819 0.0567 0.9225
vn -0.3743 0.0903 0.9229
vn -0.5543 0.5763 -0.6004
vn -0.4705 0.7724 -0.4267
vn -0.4100 0.6372 0.6526
vn -0.6974 0.0728 -0.7129
vn -0.4619 -0.1584 0.8727
vn 0.8096 0.2317 0.5393
vn 0.8867 0.2220 0.4055
vn 0.4753 -0.3947 0.7863
vn -0.5874 0.6953 0.4142
vn -0.3909 0.2930 0.8725
vn -0.3790 0.3849 -0.8415
vn 0.9677 -0.2296 0.1043
vn -0.3774 -0.0504 0.9247
vn 0.3933 -0.6393 0.6608
vn -0.7851 -0.0306 0.6186
vn 0.6535 0.7236 -0.2221
vn -0.5201 0.6859 -0.5090
vn 0.9603 0.2584 0.1052
vn 0.5826 0.7304 -0.3565
vn -0.0796 0.6801 0.7288
vn -0.3948 0.2093 -0.8946
vn -0.1560 0.7100 0.6867
vn -0.1247 0.6991 -0.7041
vn 0.6161 0.7866 -0.0403
vn -0.4838 0.8159 -0.3165
vn 0.2050 0.7043 -0.6797
vn -0.1817 0.6738 0.7163
# 92 vertex normals

vt 0.8636 0.7091 0.0000
vt 0.8557 0.7088 0.0000
vt 0.8636 0.6909 0.0000
vt 0.8727 0.6909 0.0000
vt 1.0000 0.9091 0.0000
vt 1.0006 0.9111 0.0000
vt 0.9909 0.9091 0.0000
vt 0.9909 0.8909 0.0000
vt 0.5636 0.8000 0.0000
vt 0.5545 0.8000 0.0000
vt 0.5545 0.7818 0.0000
vt 0.5802 0.8250 0.0000
vt 0.1545 0.6000 0.0000
vt 0.1545 0.5818 0.0000
vt 0.1636 0.6000 0.0000
vt 0.1665 0.6132 0.0000
vt 0.7364 0.7636 0.0000
vt 0.7273 0.7636 0.0000
vt 0.7273 0.7455 0.0000
vt 0.7373 0.7631 0.0000
vt 0.7000 0.7273 0.0000
vt 0.7000 0.7091 0.0000
vt 0.7091 0.7273 0.0000
vt 0.7091 0.7455 0.0000
vt 0.7091 0.7091 0.0000
vt 0.7182 0.7091 0.0000
vt 0.7182 0.7273 0.0000
vt 0.7364 0.7091 0.0000
vt 0.7455 0.7091 0.0000
vt 0.7455 0.7273 0.0000
vt 0.7364 0.7273 0.0000
vt 0.8000 0.7273 0.0000
vt 0.7992 0.7250 0.0000
vt 0.8000 0.7091 0.0000
vt 0.8091 0.7273 0.0000
vt 0.3852 0.6651 0.0000
vt 0.3909 0.6727 0.0000
vt 0.4000 0.6909 0.0000
vt 0.3909 0.6909 0.0000
vt 0.5824 0.6269 0.0000
vt 0.5818 0.6364 0.0000
vt 0.5727 0.6182 0.0000
vt 0.5818 0.6182 0.0000
vt 0.2091 0.6909 0.0000
vt 0.2091 0.6727 0.0000
vt 0.2182 0.6727 0.0000
vt 0.2182 0.6909 0.0000
vt 0.2273 0.6909 0.0000
vt 0.2273 0.6727 0.0000
vt 0.2364 0.6727 0.0000
vt 0.6636 0.6364 0.0000
vt 0.6693 0.6511 0.0000
vt 0.6545 0.6364 0.0000
vt 0.6545 0.6182 0.0000
vt 0.7000 0.6909 0.0000
vt 0.7000 0.6727 0.0000
vt 0.7091 0.6727 0.0000
vt 0.7455 0.6727 0.0000
vt 0.7455 0.6545 0.0000
vt 0.7545 0.6545 0.0000
vt 0.8545 0.6545 0.0000
vt 0.8545 0.6727 0.0000
vt 0.8455 0.6727 0.0000
vt 0.9909 0.6545 0.0000
vt 1.0000 0.6545 0.0000
vt 1.0000 0.6727 0.0000
vt 0.2364 0.6364 0.0000
vt 0.2273 0.6364 0.0000
vt 0.2273 0.6182 0.0000
vt 0.2377 0.6280 0.0000
vt 0.5818 0.6545 0.0000
vt 0.5727 0.6545 0.0000
vt 0.5727 0.6364 0.0000
vt 0.7182 0.6364 0.0000
vt 0.7273 0.6364 0.0000
vt 0.7273 0.6545 0.0000
vt 0.7727 0.6545 0.0000
vt 0.7727 0.6364 0.0000
vt 0.7818 0.6182 0.0000
vt 0.7818 0.6364 0.0000
vt 0.3273 0.6364 0.0000
vt 0.3182 0.6364 0.0000
vt 0.3182 0.6182 0.0000
vt 0.6455 0.6364 0.0000
vt 0.6364 0.6364 0.0000
vt 0.6364 0.6182 0.0000
vt 0.6455 0.6182 0.0000
vt 0.6727 0.6182 0.0000
vt 0.6818 0.6182 0.0000
vt 0.6818 0.6364 0.0000
vt 0.8364 0.6182 0.0000
vt 0.8364 0.6364 0.0000
vt 0.8273 0.6364 0.0000
vt 0.8252 0.6301 0.0000
vt 0.2455 0.5818 0.0000
vt 0.2296 0.5669 0.0000
vt 0.2364 0.5636 0.0000
vt 0.2455 0.5636 0.0000
vt 0.3091 0.6182 0.0000
vt 0.3091 0.6000 0.0000
vt 0.3137 0.5970 0.0000
vt 0.3182 0.6000 0.0000
vt 0.3364 0.6000 0.0000
vt 0.3364 0.6182 0.0000
vt 0.3273 0.6182 0.0000
vt 0.3455 0.6000 0.0000
vt 0.3406 0.5858 0.0000
vt 0.3545 0.6000 0.0000
vt 0.3545 0.6182 0.0000
vt 0.6653 0.5906 0.0000
vt 0.6636 0.5818 0.0000
vt 0.6727 0.5636 0.0000
vt 0.6727 0.5818 0.0000
vt 0.7000 0.5636 0.0000
vt 0.7101 0.5809 0.0000
vt 0.7091 0.5818 0.0000
vt 0.7000 0.5818 0.0000
vt 0.1545 0.5091 0.0000
vt 0.1545 0.4909 0.0000
vt 0.1636 0.5091 0.0000
vt 0.1649 0.5207 0.0000
vt 0.1818 0.5818 0.0000
vt 0.1827 0.5718 0.0000
vt 0.1909 0.5818 0.0000
vt 0.1909 0.6000 0.0000
vt 0.7091 0.4909 0.0000
vt 0.7000 0.4727 0.0000
vt 0.7091 0.4727 0.0000
vt 0.7170 0.4988 0.0000
vt 0.7727 0.5818 0.0000
vt 0.7727 0.6000 0.0000
vt 0.7636 0.6000 0.0000
vt 0.2545 0.5818 0.0000
vt 0.2727 0.5636 0.0000
vt 0.2617 0.5467 0.0000
vt 0.2636 0.5455 0.0000
vt 0.2727 0.5455 0.0000
vt 0.6909 0.5818 0.0000
vt 0.6909 0.5636 0.0000
vt 0.8545 0.5818 0.0000
vt 0.8455 0.5818 0.0000
vt 0.8374 0.5594 0.0000
vt 0.8455 0.5636 0.0000
vt 0.0545 0.5455 0.0000
vt 0.0636 0.5455 0.0000
vt 0.0636 0.5636 0.0000
vt 0.7727 0.4909 0.0000
vt 0.7818 0.4909 0.0000
vt 0.7727 0.5091 0.0000
vt 0.7641 0.5177 0.0000
vt 0.9727 0.5636 0.0000
vt 0.9685 0.5588 0.0000
vt 0.9727 0.5455 0.0000
vt 0.9818 0.5455 0.0000
vt 0.1815 0.5160 0.0000
vt 0.1727 0.5091 0.0000
vt 0.1818 0.4909 0.0000
vt 0.2000 0.5273 0.0000
vt 0.2000 0.5455 0.0000
vt 0.1909 0.5455 0.0000
vt 0.2091 0.5091 0.0000
vt 0.2091 0.5273 0.0000
vt 0.2091 0.5455 0.0000
vt 0.2455 0.5455 0.0000
vt 0.2455 0.5273 0.0000
vt 0.2450 0.5198 0.0000
vt 0.2545 0.5273 0.0000
vt 0.1909 0.4909 0.0000
vt 0.2000 0.5091 0.0000
vt 0.5818 0.5091 0.0000
vt 0.5905 0.5142 0.0000
vt 0.5818 0.5273 0.0000
vt 0.5727 0.5273 0.0000
vt 0.6273 0.5091 0.0000
vt 0.6273 0.5273 0.0000
vt 0.6182 0.5273 0.0000
vt 0.6249 0.5064 0.0000
vt 0.2365 0.4669 0.0000
vt 0.2091 0.4545 0.0000
vt 0.2091 0.4364 0.0000
vt 0.2182 0.4545 0.0000
vt 0.2273 0.5091 0.0000
vt 0.2273 0.4909 0.0000
vt 0.2364 0.4909 0.0000
vt 0.2364 0.5091 0.0000
vt 0.8000 0.4909 0.0000
vt 0.8000 0.5091 0.0000
vt 0.7909 0.5091 0.0000
vt 0.8818 0.4364 0.0000
vt 0.8721 0.4218 0.0000
vt 0.8727 0.4182 0.0000
vt 0.8818 0.4182 0.0000
vt 0.9000 0.4909 0.0000
vt 0.9091 0.4909 0.0000
vt 0.9091 0.5091 0.0000
vt 0.9000 0.5091 0.0000
vt 0.9965 0.2777 0.0000
vt 0.9909 0.2727 0.0000
vt 0.9909 0.2545 0.0000
vt 1.0000 0.2727 0.0000
vt 0.1182 0.4909 0.0000
vt 0.1091 0.4909 0.0000
vt 0.1064 0.4671 0.0000
vt 0.1091 0.4727 0.0000
vt 0.2364 0.4545 0.0000
vt 0.2455 0.4545 0.0000
vt 0.2455 0.4727 0.0000
vt 0.1091 0.4364 0.0000
vt 0.1182 0.4364 0.0000
vt 0.1182 0.4545 0.0000
vt 0.1545 0.4545 0.0000
vt 0.1545 0.4364 0.0000
vt 0.1517 0.4210 0.0000
vt 0.1636 0.4364 0.0000
vt 0.2182 0.4364 0.0000
vt 0.2273 0.4364 0.0000
vt 0.2273 0.4545 0.0000
vt 0.2636 0.4000 0.0000
vt 0.2637 0.4128 0.0000
vt 0.2545 0.4000 0.0000
vt 0.2545 0.3818 0.0000
vt 0.1000 0.4182 0.0000
vt 0.1000 0.4364 0.0000
vt 0.0909 0.4364 0.0000
vt 0.1091 0.4182 0.0000
vt 0.2182 0.4182 0.0000
vt 0.2273 0.4182 0.0000
vt 0.2091 0.4000 0.0000
vt 0.2091 0.4182 0.0000
vt 0.2000 0.4182 0.0000
vt 0.2273 0.4000 0.0000
vt 0.2495 0.4019 0.0000
vt 0.2455 0.4000 0.0000
vt 0.2455 0.3818 0.0000
vt 0.8182 0.4182 0.0000
vt 0.8091 0.4182 0.0000
vt 0.8017 0.3909 0.0000
vt 0.8091 0.4000 0.0000
vt 0.8273 0.4182 0.0000
vt 0.8273 0.4000 0.0000
vt 0.8330 0.3954 0.0000
vt 0.8364 0.4000 0.0000
vt 0.8818 0.3455 0.0000
vt 0.8734 0.3693 0.0000
vt 0.8727 0.3636 0.0000
vt 0.8727 0.3455 0.0000
vt 0.2000 0.4000 0.0000
vt 0.2000 0.3818 0.0000
vt 0.2091 0.3818 0.0000
vt 0.2364 0.3818 0.0000
vt 0.2526 0.4190 0.0000
vt 0.3843 0.3354 0.0000
vt 0.3818 0.3273 0.0000
vt 0.3909 0.3273 0.0000
vt 0.3909 0.3455 0.0000
vt 0.8455 0.3636 0.0000
vt 0.8545 0.3636 0.0000
vt 0.8545 0.3818 0.0000
vt 0.2273 0.3636 0.0000
vt 0.2273 0.3455 0.0000
vt 0.2364 0.3455 0.0000
vt 0.8636 0.3636 0.0000
vt 0.8636 0.3455 0.0000
vt 0.2091 0.3455 0.0000
vt 0.2091 0.3273 0.0000
vt 0.2182 0.3273 0.0000
vt 0.7455 0.2909 0.0000
vt 0.7396 0.2987 0.0000
vt 0.7364 0.2909 0.0000
vt 0.7455 0.2727 0.0000
vt 0.3182 0.2727 0.0000
vt 0.3204 0.2859 0.0000
vt 0.3091 0.2727 0.0000
vt 0.3091 0.2545 0.0000
vt 0.8273 0.3091 0.0000
vt 0.8364 0.3091 0.0000
vt 0.8364 0.3273 0.0000
vt 0.8455 0.3273 0.0000
vt 0.9091 0.3091 0.0000
vt 0.9100 0.3051 0.0000
vt 0.9182 0.2909 0.0000
vt 0.9182 0.3091 0.0000
vt 0.4000 0.3091 0.0000
vt 0.3909 0.3091 0.0000
vt 0.3865 0.2950 0.0000
vt 0.3909 0.2909 0.0000
vt 1.0000 0.0909 0.0000
vt 1.0035 0.1028 0.0000
vt 1.0000 0.1091 0.0000
vt 0.9909 0.1091 0.0000
vt 0.5091 0.0727 0.0000
vt 0.5091 0.0545 0.0000
vt 0.5182 0.0727 0.0000
vt 0.5064 0.0907 0.0000
vt 0.8364 0.2182 0.0000
vt 0.8364 0.2364 0.0000
vt 0.8273 0.2364 0.0000
vt 0.2545 0.2000 0.0000
vt 0.2596 0.1972 0.0000
vt 0.2636 0.2000 0.0000
vt 0.2636 0.2182 0.0000
vt 0.6182 0.1818 0.0000
vt 0.6182 0.2000 0.0000
vt 0.6091 0.2000 0.0000
vt 0.6129 0.1826 0.0000
vt 0.9364 0.0909 0.0000
vt 0.9378 0.0765 0.0000
vt 0.9455 0.0727 0.0000
vt 0.9455 0.0909 0.0000
# 309 texture coords

g Sphere01
s off
f 1/1/1 2/2/1 3/3/1 4/4/1 
f 5/5/2 6/6/2 2/7/2 1/8/2 
f 3/9/3 2/10/3 7/11/3 8/12/3 
f 1/13/4 9/14/4 10/15/4 5/16/4 
f 11/17/5 3/18/5 8/19/5 12/20/5 
f 13/21/6 14/22/6 8/23/6 7/24/6 
f 14/25/7 15/26/7 8/27/7 
f 15/28/8 16/29/8 12/30/8 8/31/8 
f 11/32/9 12/33/9 16/34/9 3/35/9 
f 6/36/10 17/37/10 18/38/10 2/39/10 
f 13/40/11 7/41/11 18/42/11 19/43/11 
f 5/44/12 10/45/12 20/46/12 6/47/12 
f 6/48/13 20/49/13 21/50/13 
f 22/51/14 14/52/14 13/53/14 23/54/14 
f 14/55/15 22/56/15 15/57/15 
f 15/58/16 24/59/16 25/60/16 
f 4/61/17 3/62/17 16/63/17 
f 4/64/18 26/65/18 1/66/18 
f 20/67/19 10/68/19 27/69/19 21/70/19 
f 7/71/20 2/72/20 18/73/20 
f 22/74/21 24/75/21 15/76/21 
f 15/77/22 25/78/22 28/79/22 16/80/22 
f 17/81/23 6/82/23 21/83/23 
f 13/84/24 19/85/24 29/86/24 
f 13/84/25 29/87/25 23/54/25 
f 23/88/26 30/89/26 22/90/26 
f 4/91/27 16/92/27 28/93/27 31/94/27 
f 27/95/28 10/96/28 32/97/28 33/98/28 
f 21/99/29 27/100/29 34/101/29 35/102/29 
f 35/103/30 17/104/30 21/105/30 
f 35/106/31 36/107/31 18/108/31 17/109/31 
f 23/110/32 29/111/32 37/112/32 30/113/32 
f 37/114/33 25/115/33 24/116/33 22/117/33 
f 9/118/34 38/119/34 39/120/34 10/121/34 
f 39/122/35 40/123/35 32/124/35 10/125/35 
f 37/126/36 41/127/36 42/128/36 25/129/36 
f 42/130/37 28/131/37 25/132/37 
f 34/133/38 27/95/38 33/98/38 
f 35/134/39 34/135/39 33/136/39 36/137/39 
f 22/117/40 30/138/40 37/139/40 
f 43/140/41 4/141/41 31/142/41 44/143/41 
f 26/144/42 9/145/42 1/146/42 
f 42/147/43 45/148/43 31/149/43 28/150/43 
f 4/151/44 43/152/44 46/153/44 26/154/44 
f 47/155/45 39/156/45 38/157/45 
f 47/158/46 40/159/46 39/160/46 
f 40/159/47 47/158/47 48/161/47 49/162/47 
f 49/162/48 32/163/48 40/159/48 
f 32/164/49 50/165/49 36/166/49 33/167/49 
f 38/168/50 48/169/50 47/158/50 
f 18/170/51 51/171/51 41/172/51 19/173/51 
f 29/174/52 19/175/52 41/176/52 37/177/52 
f 49/178/53 48/179/53 52/180/53 53/181/53 
f 49/182/54 53/183/54 50/184/54 32/185/54 
f 45/186/55 44/187/55 31/188/55 
f 44/189/56 45/190/56 54/191/56 55/192/56 
f 44/193/57 55/194/57 46/195/57 43/196/57 
f 46/197/58 55/198/58 56/199/58 26/200/58 
f 9/201/59 26/202/59 57/203/59 38/204/59 
f 53/205/60 58/206/60 50/207/60 
f 57/208/61 59/209/61 38/210/61 
f 38/211/62 59/212/62 56/213/62 48/214/62 
f 52/215/63 58/216/63 53/217/63 
f 36/218/64 50/219/64 58/220/64 60/221/64 
f 56/222/65 57/223/65 26/224/65 
f 59/209/66 57/208/66 56/225/66 
f 61/226/67 62/227/67 58/216/67 52/215/67 
f 61/228/68 52/229/68 48/230/68 
f 63/231/69 62/227/69 61/226/69 
f 58/220/70 62/232/70 63/233/70 60/234/70 
f 45/235/71 42/236/71 64/237/71 65/238/71 
f 45/239/72 65/240/72 66/241/72 54/242/72 
f 55/243/73 54/244/73 66/245/73 67/246/73 
f 48/247/74 56/248/74 68/249/74 61/228/74 
f 68/250/75 60/234/75 63/233/75 61/251/75 
f 60/252/76 69/253/76 18/254/76 36/255/76 
f 65/256/77 70/257/77 66/258/77 
f 68/259/78 71/260/78 60/261/78 
f 66/262/79 70/263/79 67/246/79 
f 68/264/80 56/265/80 71/266/80 
f 64/267/81 42/268/81 41/269/81 72/270/81 
f 69/271/82 60/272/82 71/273/82 73/274/82 
f 64/275/83 74/276/83 65/277/83 
f 70/278/84 65/277/84 74/276/84 
f 67/279/85 70/280/85 74/281/85 55/282/85 
f 18/283/86 69/284/86 73/285/86 51/286/86 
f 75/287/87 71/288/87 56/289/87 55/290/87 
f 76/291/88 75/292/88 51/293/88 73/294/88 
f 74/295/89 64/296/89 72/297/89 
f 75/298/90 76/299/90 73/300/90 71/301/90 
f 72/302/91 41/303/91 51/304/91 75/305/91 
f 74/306/92 72/307/92 75/308/92 55/309/92 
# 56 polygons - 36 triangles

